<svg width="48" height="52" viewBox="0 0 48 52" fill="none" xmlns="http://www.w3.org/2000/svg">
<g clip-path="url(#clip0_57_460)">
<path d="M36.5676 16.1933V51.7418C36.5676 51.8846 36.4517 52.0031 36.3054 52.0031H33.4397C31.8788 52.0031 30.6167 50.7425 30.6167 49.1903V40.3115C30.6167 39.5825 30.0192 38.9871 29.2875 38.9902H29.2723H18.5657C14.5385 38.9902 11.2734 35.7369 11.2734 31.7243V16.2905C11.2734 14.717 12.4654 13.3501 14.0385 13.2438C14.9439 13.183 15.7671 13.5232 16.3524 14.1065C16.8889 14.6441 17.2243 15.3853 17.2243 16.2024V30.0992C17.2243 31.7365 18.5565 33.0639 20.1997 33.0639H27.6383C29.2814 33.0639 30.6137 31.7365 30.6137 30.0992V16.2965C30.6137 14.7261 31.8026 13.3562 33.3726 13.2468C34.2781 13.183 35.1042 13.5263 35.6896 14.1095C36.2292 14.6471 36.5615 15.3883 36.5615 16.2054L36.5676 16.1933Z" fill="#FFBE1D"/>
<path d="M33.531 13.2286H33.595C31.9519 13.2286 30.6196 14.5561 30.6196 16.1933V16.1325C30.6196 14.5287 31.9244 13.2286 33.531 13.2286Z" fill="#FFBE1D"/>
<path d="M36.5677 16.1325V16.1933C36.5677 15.3762 36.2354 14.635 35.6958 14.0974C35.1562 13.5597 34.4124 13.2286 33.5923 13.2286H33.6533C35.2629 13.2286 36.5677 14.5287 36.5677 16.1325Z" fill="#FFBE1D"/>
<path d="M2.66426 5.12123C1.01193 7.38725 0.0851574 10.0968 0.00284558 12.8974C0.00284558 12.9308 0.00284558 12.9642 0.00284558 12.9976C-0.00630018 13.274 0.0577201 13.5535 0.0638173 13.8421C0.0668659 13.9119 0.0668659 13.9848 0.0668659 14.0577C0.0668659 16.7764 0.0455258 24.9656 0.0790602 27.6873C0.0973518 29.4612 1.59116 30.9344 3.34715 31.0012C5.24337 31.0742 6.81034 29.7619 6.98716 27.9364C7.03898 27.3957 7.06642 26.8519 7.06642 26.3082C7.07862 23.8721 7.05118 15.9684 7.08166 13.5292C7.11825 10.8197 8.75839 8.43217 11.1729 7.48446C13.8404 6.4365 16.7243 7.01667 18.645 9.04272C19.8644 10.3276 20.4924 11.8646 20.4833 13.6689C20.4619 17.9762 20.465 22.2804 20.4833 26.5877C20.4924 29.1909 22.8185 30.9071 25.175 30.0839C26.5774 29.5949 27.4828 28.2766 27.4859 26.6758C27.495 22.3229 27.4706 17.9701 27.498 13.6173C27.5194 9.78693 30.7448 6.6795 34.6683 6.9863C38.4577 7.28094 40.9545 10.1302 40.9576 13.9393C40.9637 19.902 40.9576 42.2676 40.9637 48.2303C40.9667 50.2563 42.43 51.7204 44.4573 51.7508C45.3109 51.763 46.1676 51.7569 47.0212 51.7539C47.9449 51.7508 47.9724 51.7296 47.9724 50.7879C47.9754 47.3099 47.9754 27.4291 47.9754 23.2281C47.887 20.142 48.1522 16.3298 47.8687 12.5298C47.2498 4.20085 39.0522 -1.63734 30.9247 0.413015C28.4218 1.04483 26.2634 2.272 24.4678 4.1158C24.0989 4.4955 23.9038 4.52587 23.5379 4.10365C23.1416 3.64194 22.6447 3.25617 22.1539 2.88255C16.831 -1.1817 8.99008 -0.592418 3.8776 3.79078C3.42031 4.18263 3.0179 4.63522 2.66426 5.12123Z" fill="white"/>
</g>
<defs>
<clipPath id="clip0_57_460">
<rect width="48" height="52" fill="white"/>
</clipPath>
</defs>
</svg>
